<svg xmlns="http://www.w3.org/2000/svg" xmlns:xlink="http://www.w3.org/1999/xlink" width="196" zoomAndPan="magnify" viewBox="0 0 147 132.749998" height="177" preserveAspectRatio="xMidYMid meet" version="1.0"><defs><clipPath id="d30c50e7f6"><path d="M 15 92 L 122 92 L 122 132.5 L 15 132.5 Z M 15 92 " clip-rule="nonzero"/></clipPath><clipPath id="093c82f8a8"><path d="M 55.222656 0 L 91.351562 0 L 91.351562 36.128906 L 55.222656 36.128906 Z M 55.222656 0 " clip-rule="nonzero"/></clipPath><clipPath id="12a8c166ca"><path d="M 73.289062 0 C 63.308594 0 55.222656 8.085938 55.222656 18.066406 C 55.222656 28.042969 63.308594 36.128906 73.289062 36.128906 C 83.265625 36.128906 91.351562 28.042969 91.351562 18.066406 C 91.351562 8.085938 83.265625 0 73.289062 0 Z M 73.289062 0 " clip-rule="nonzero"/></clipPath><clipPath id="274a1224a0"><path d="M 0.222656 0 L 36.351562 0 L 36.351562 36.128906 L 0.222656 36.128906 Z M 0.222656 0 " clip-rule="nonzero"/></clipPath><clipPath id="1d847fb046"><path d="M 18.289062 0 C 8.308594 0 0.222656 8.085938 0.222656 18.066406 C 0.222656 28.042969 8.308594 36.128906 18.289062 36.128906 C 28.265625 36.128906 36.351562 28.042969 36.351562 18.066406 C 36.351562 8.085938 28.265625 0 18.289062 0 Z M 18.289062 0 " clip-rule="nonzero"/></clipPath><clipPath id="460de6fb32"><rect x="0" width="37" y="0" height="37"/></clipPath><clipPath id="c8813b2cb9"><path d="M 110.308594 95.195312 L 146.4375 95.195312 L 146.4375 131.324219 L 110.308594 131.324219 Z M 110.308594 95.195312 " clip-rule="nonzero"/></clipPath><clipPath id="8b98b8358d"><path d="M 128.371094 95.195312 C 118.394531 95.195312 110.308594 103.285156 110.308594 113.261719 C 110.308594 123.238281 118.394531 131.324219 128.371094 131.324219 C 138.347656 131.324219 146.4375 123.238281 146.4375 113.261719 C 146.4375 103.285156 138.347656 95.195312 128.371094 95.195312 Z M 128.371094 95.195312 " clip-rule="nonzero"/></clipPath><clipPath id="ae4c11a1f7"><path d="M 0.308594 0.195312 L 36.4375 0.195312 L 36.4375 36.324219 L 0.308594 36.324219 Z M 0.308594 0.195312 " clip-rule="nonzero"/></clipPath><clipPath id="8e469d49e8"><path d="M 18.371094 0.195312 C 8.394531 0.195312 0.308594 8.285156 0.308594 18.261719 C 0.308594 28.238281 8.394531 36.324219 18.371094 36.324219 C 28.347656 36.324219 36.4375 28.238281 36.4375 18.261719 C 36.4375 8.285156 28.347656 0.195312 18.371094 0.195312 Z M 18.371094 0.195312 " clip-rule="nonzero"/></clipPath><clipPath id="27c56b939b"><rect x="0" width="37" y="0" height="37"/></clipPath><clipPath id="5789b2267b"><path d="M 0.136719 96.019531 L 36.265625 96.019531 L 36.265625 132.152344 L 0.136719 132.152344 Z M 0.136719 96.019531 " clip-rule="nonzero"/></clipPath><clipPath id="1e339759b5"><path d="M 18.203125 96.019531 C 8.226562 96.019531 0.136719 104.109375 0.136719 114.085938 C 0.136719 124.0625 8.226562 132.152344 18.203125 132.152344 C 28.179688 132.152344 36.265625 124.0625 36.265625 114.085938 C 36.265625 104.109375 28.179688 96.019531 18.203125 96.019531 Z M 18.203125 96.019531 " clip-rule="nonzero"/></clipPath><clipPath id="7c96b0a704"><path d="M 0.136719 0.0195312 L 36.265625 0.0195312 L 36.265625 36.152344 L 0.136719 36.152344 Z M 0.136719 0.0195312 " clip-rule="nonzero"/></clipPath><clipPath id="3618235e0f"><path d="M 18.203125 0.0195312 C 8.226562 0.0195312 0.136719 8.109375 0.136719 18.085938 C 0.136719 28.0625 8.226562 36.152344 18.203125 36.152344 C 28.179688 36.152344 36.265625 28.0625 36.265625 18.085938 C 36.265625 8.109375 28.179688 0.0195312 18.203125 0.0195312 Z M 18.203125 0.0195312 " clip-rule="nonzero"/></clipPath><clipPath id="2b5575784e"><rect x="0" width="37" y="0" height="37"/></clipPath></defs><path stroke-linecap="butt" transform="matrix(0.372501, -0.649331, 0.649331, 0.372501, 25.56778, 97.478711)" fill="none" stroke-linejoin="miter" d="M 13.751058 2.498638 L 99.60312 2.499448 " stroke="#000000" stroke-width="5" stroke-opacity="1" stroke-miterlimit="4"/><path stroke-linecap="round" transform="matrix(0.372501, -0.649331, 0.649331, 0.372501, 25.56778, 97.478711)" fill-opacity="1" fill="#000000" fill-rule="nonzero" stroke-linejoin="round" d="M 12.498959 -5.000666 L 2.500873 2.497551 L 12.502258 10.000867 Z M 12.498959 -5.000666 " stroke="#000000" stroke-width="5" stroke-opacity="1" stroke-miterlimit="4"/><path stroke-linecap="butt" transform="matrix(-0.374921, -0.647936, 0.647936, -0.374921, 117.696725, 98.556645)" fill="none" stroke-linejoin="miter" d="M 13.750002 2.498077 L 84.901136 2.498494 " stroke="#000000" stroke-width="5" stroke-opacity="1" stroke-miterlimit="4"/><path stroke-linecap="round" transform="matrix(-0.374921, -0.647936, 0.647936, -0.374921, 117.696725, 98.556645)" fill-opacity="1" fill="#000000" fill-rule="nonzero" stroke-linejoin="round" d="M 12.500686 -5.001147 L 2.499663 2.499253 L 12.502254 9.999305 Z M 12.500686 -5.001147 " stroke="#000000" stroke-width="5" stroke-opacity="1" stroke-miterlimit="4"/><path stroke-linecap="round" transform="matrix(-0.374921, -0.647936, 0.647936, -0.374921, 117.696725, 98.556645)" fill-opacity="1" fill="#000000" fill-rule="nonzero" stroke-linejoin="round" d="M 86.1534 -5.00012 L 96.151475 2.497318 L 86.150452 9.997718 Z M 86.1534 -5.00012 " stroke="#000000" stroke-width="5" stroke-opacity="1" stroke-miterlimit="4"/><g clip-path="url(#d30c50e7f6)"><path stroke-linecap="butt" transform="matrix(-0.748569, 0.0056042, -0.0056042, -0.748569, 110.3192, 115.267823)" fill="none" stroke-linejoin="miter" d="M 13.750853 2.501077 L 98.908092 2.50198 " stroke="#000000" stroke-width="5" stroke-opacity="1" stroke-miterlimit="4"/></g><path stroke-linecap="round" transform="matrix(-0.748569, 0.0056042, -0.0056042, -0.748569, 110.3192, 115.267823)" fill-opacity="1" fill="#000000" fill-rule="nonzero" stroke-linejoin="round" d="M 12.502451 -5.001732 L 2.500229 2.500341 L 12.499717 10.000827 Z M 12.502451 -5.001732 " stroke="#000000" stroke-width="5" stroke-opacity="1" stroke-miterlimit="4"/><g clip-path="url(#093c82f8a8)"><g clip-path="url(#12a8c166ca)"><g transform="matrix(1, 0, 0, 1, 55, -0.000000000000006455)"><g clip-path="url(#460de6fb32)"><g clip-path="url(#274a1224a0)"><g clip-path="url(#1d847fb046)"><path fill="#5a5a5a" d="M 0.222656 0 L 36.351562 0 L 36.351562 36.128906 L 0.222656 36.128906 Z M 0.222656 0 " fill-opacity="1" fill-rule="nonzero"/></g></g></g></g></g></g><g clip-path="url(#c8813b2cb9)"><g clip-path="url(#8b98b8358d)"><g transform="matrix(1, 0, 0, 1, 110, 95)"><g clip-path="url(#27c56b939b)"><g clip-path="url(#ae4c11a1f7)"><g clip-path="url(#8e469d49e8)"><path fill="#5a5a5a" d="M 0.308594 0.195312 L 36.4375 0.195312 L 36.4375 36.324219 L 0.308594 36.324219 Z M 0.308594 0.195312 " fill-opacity="1" fill-rule="nonzero"/></g></g></g></g></g></g><g clip-path="url(#5789b2267b)"><g clip-path="url(#1e339759b5)"><g transform="matrix(1, 0, 0, 1, 0.000000000000000028, 96)"><g clip-path="url(#2b5575784e)"><g clip-path="url(#7c96b0a704)"><g clip-path="url(#3618235e0f)"><path fill="#5a5a5a" d="M 0.136719 0.0195312 L 36.265625 0.0195312 L 36.265625 36.152344 L 0.136719 36.152344 Z M 0.136719 0.0195312 " fill-opacity="1" fill-rule="nonzero"/></g></g></g></g></g></g></svg>